<?xml version="1.0" encoding="iso-8859-1"?>
<!-- Generator: Adobe Illustrator 16.0.0, SVG Export Plug-In . SVG Version: 6.00 Build 0)  -->
<!DOCTYPE svg PUBLIC "-//W3C//DTD SVG 1.1//EN" "http://www.w3.org/Graphics/SVG/1.1/DTD/svg11.dtd">
<svg version="1.1" id="Capa_1" xmlns="http://www.w3.org/2000/svg" xmlns:xlink="http://www.w3.org/1999/xlink" x="0px" y="0px"
	 width="64px" height="64px" viewBox="0 0 64 64" style="enable-background:new 0 0 64 64;" xml:space="preserve">
<g>
	<g>
		<g id="circle_copy_4_4_">
			<g>
				<path d="M32,0C14.327,0,0,14.327,0,32s14.327,32,32,32s32-14.327,32-32S49.673,0,32,0z M32,62C15.432,62,2,48.568,2,32.001
					C2,15.432,15.432,2,32,2c16.568,0,30,13.432,30,30.001C62,48.568,48.568,62,32,62z"/>
			</g>
		</g>
		<g id="Settings">
			<g>
				<path d="M33,32.143V20h-2v12.143c-1.722,0.445-3,1.996-3,3.857s1.278,3.412,3,3.857V44h2v-4.143c1.723-0.445,3-1.996,3-3.857
					S34.723,32.588,33,32.143z M32,38c-1.104,0-2-0.896-2-2s0.896-2,2-2c1.104,0,2,0.896,2,2S33.104,38,32,38z M25,23.142V20h-2
					v3.142c-1.722,0.446-3,1.997-3,3.858s1.278,3.412,3,3.858V44h2V30.858c1.722-0.446,3-1.997,3-3.858S26.722,23.588,25,23.142z
					 M24,29c-1.104,0-2-0.896-2-2s0.896-2,2-2s2,0.896,2,2S25.104,29,24,29z M41,23.142V20h-2v3.142c-1.723,0.446-3,1.997-3,3.858
					s1.277,3.412,3,3.858V44h2V30.858c1.723-0.446,3-1.997,3-3.858S42.723,23.588,41,23.142z M40,29c-1.104,0-2-0.896-2-2
					s0.896-2,2-2s2,0.896,2,2S41.104,29,40,29z"/>
			</g>
		</g>
	</g>
</g>
<g>
</g>
<g>
</g>
<g>
</g>
<g>
</g>
<g>
</g>
<g>
</g>
<g>
</g>
<g>
</g>
<g>
</g>
<g>
</g>
<g>
</g>
<g>
</g>
<g>
</g>
<g>
</g>
<g>
</g>
</svg>
