<?xml version="1.0" encoding="iso-8859-1"?>
<!-- Generator: Adobe Illustrator 16.0.0, SVG Export Plug-In . SVG Version: 6.00 Build 0)  -->
<!DOCTYPE svg PUBLIC "-//W3C//DTD SVG 1.1//EN" "http://www.w3.org/Graphics/SVG/1.1/DTD/svg11.dtd">
<svg version="1.1" id="Capa_1" xmlns="http://www.w3.org/2000/svg" xmlns:xlink="http://www.w3.org/1999/xlink" x="0px" y="0px"
	 width="64px" height="64px" viewBox="0 0 64 64" style="enable-background:new 0 0 64 64;" xml:space="preserve">
<g>
	<g>
		<g id="circle_69_">
			<g>
				<path d="M32,0C14.327,0,0,14.327,0,32s14.327,32,32,32s32-14.327,32-32S49.673,0,32,0z M32,62C15.432,62,2,48.568,2,32
					C2,15.432,15.432,2,32,2c16.568,0,30,13.432,30,30C62,48.568,48.568,62,32,62z"/>
			</g>
		</g>
		<g id="Ellipse_17_copy">
			<g>
				<path d="M32,22c-5.633,0-15,4.478-15,10c0,5.521,9.367,10,15,10c5.634,0,15-4.479,15-10C47,26.478,37.634,22,32,22z M32,40.003
					c-4.685,0-13.01-3.583-13.01-8.003s8.325-8.003,13.01-8.003c4.686,0,13.01,3.583,13.01,8.003S36.686,40.003,32,40.003z"/>
			</g>
		</g>
		<g id="Ellipse_17">
			<g>
				<path d="M32,26c-3.313,0-6,2.687-6,6c0,3.312,2.687,6,6,6c3.312,0,6-2.688,6-6C38,28.687,35.312,26,32,26z M32,36
					c-2.209,0-4-1.791-4-4s1.791-4,4-4s4,1.791,4,4S34.209,36,32,36z"/>
			</g>
		</g>
		<g id="Ellipse_18">
			<g>
				<path d="M36.857,30.864c-0.431-1.846-1.877-3.292-3.723-3.723C31.903,27.514,31,28.646,31,30c0,1.657,1.343,3,3,3
					C35.354,33,36.486,32.098,36.857,30.864z M33,30c0-0.553,0.447-1,1-1s1,0.447,1,1s-0.447,1-1,1S33,30.553,33,30z"/>
			</g>
		</g>
	</g>
</g>
<g>
</g>
<g>
</g>
<g>
</g>
<g>
</g>
<g>
</g>
<g>
</g>
<g>
</g>
<g>
</g>
<g>
</g>
<g>
</g>
<g>
</g>
<g>
</g>
<g>
</g>
<g>
</g>
<g>
</g>
</svg>
